<svg xmlns="http://www.w3.org/2000/svg" viewBox="0 0 512 512" width="512" height="512">
  <g fill="#6f6f6f">
    <rect x="120" y="120" width="272" height="80" rx="10" ry="10" fill="#D63447"/>
    <rect x="120" y="220" width="272" height="80" rx="10" ry="10" fill="#515151"/>
    <rect x="120" y="320" width="272" height="80" rx="10" ry="10" fill="#515151"/>
    <circle cx="160" cy="160" r="10" fill="white"/>
    <circle cx="160" cy="260" r="10" fill="white"/>
    <circle cx="160" cy="360" r="10" fill="white"/>
    <path d="M380 110c0-28-22-50-50-50s-50 22-50 50c-20 0-40 20-40 40s20 40 40 40h100c20 0 40-20 40-40s-20-40-40-40z" fill="#515151"/>
  </g>
</svg>
